# xmcd
#
# Track frame offsets:
#	150
#	18739
#	31202
#	44290
#	58173
#	74526
#	90157
#	105619
#	124009
#	140871
#	154853
#	172317
#	188614
#	197158
#	209437
#	221029
#	238952
#	257544
#	270673
#	282908
#	287245
#	292094
#	296434
#	301757
#	304778
#	309296
#	321755
#
# Disc length: 4624 seconds
#
# Revision: 1
# Processed by: cddbd v1.5.2PL0 Copyright (c) Steve Scherf et al.
# Submitted via: EasyCDDAExtractor 16.0.6.1
#
DISCID=a7120e1b
DTITLE=Various Artist - ΜΑΤΙΑ ΜΟΥ (τα ωραιοτερα ελαφρα ελληνικα τραγουδια) νο 6
DYEAR=1900
DGENRE=
TTITLE0=ΜΑΡΟΥΔΑΣ ΤΩΝΗΣ - ΜΑΤΙΑ ΜΟΥ
TTITLE1=ΧΡΥΣΟΣ ΤΕΡΗΣ - ΝΥΧΤΑ ΜΟΥ ΟΜΟΡΦΗ
TTITLE2=ΔΕΝΑΡΔΟΥ ΚΛΕΙΩ - ΚΑΙ ΣΟΥ ΚΡΑΤΩ ΤΟ ΧΕΡΙ
TTITLE3=ΔΕΝΑΡΔΟΥ ΚΛΕΙΩ - ΚΑΠΟΙΟΣ , ΚΑΠΟΥ , ΚΑΠΟΤΕ
TTITLE4=ΠΑΝΑΓΟΠΟΥΛΟΣ ΣΩΤΟΣ - ΤΩΡΑ ΜΟΥ ΛΕΙΠΕΙΣ
TTITLE5=ΖΗΛΙΑ ΑΝΤΖΕΛΑ - ΠΑΝΩ ΑΠ' ΤΑ ΣΥΝΝΕΦΑ
TTITLE6=ΜΑΚΟΥΛΗΣ ΑΝΔΡΕΑΣ - ΤΣΙΚΑ ΤΣΙΚΑ ΜΠΟΥΜ
TTITLE7=ΧΩΜΑΤΑ ΚΑΙΤΗ - ΚΑΠΟΤΕ ΚΛΑΨΑΜΕ ΚΙ ΟΙ ΔΥΟ
TTITLE8=ΖΗΛΙΑ ΑΝΤΖΕΛΑ - ΑΓΑΠΗ ΜΟΥ
TTITLE9=ΜΑΝΟΥ ΝΕΛΛΗ - ΠΟΤΕ ΘΑ 'ΡΘΕΙΣ
TTITLE10=ΒΟΓΙΑΤΖΗΣ ΓΙΑΝΝΗΣ - ΤΟ ΚΛΕΙΔΙ
TTITLE11=ΦΡΥΝΗ - ΜΙΧΑΚΑ
TTITLE12=ΓΙΟΒΑΝΝΑ - ΓΙΑ ΤΗΝ ΑΓΑΠΗ ΜΟΥ
TTITLE13=ΖΟΡΜΠΑΛΑ ΜΑΡΓΑΡΙΤΑ - ΚΑΠΟΙΟ ΜΥΣΤΙΚΟ
TTITLE14=ΓΙΟΒΑΝΝΑ - ΤΟ ΠΑΡΑΘΥΡΙ
TTITLE15=ΚΟΡΩΝΗ ΓΕΩΡΓΙΑ - ΧΩΡΙΣ ΦΙΛΙ
TTITLE16=ΔΑΝΑΗ - ΕΛΑ ΓΙΑ ΑΠΟΨΕ
TTITLE17=ΓΙΟΒΑΝΝΑ - ΘΥΜΗΣΟΥ ΤΟ ΣΕΠΤΕΜΒΡΗ
TTITLE18=ΖΟΡΜΠΑΛΑ ΜΑΡΓΑΡΙΤΑ - ΧΤΕς ΤΟ ΒΡΑΔΥ ΟΝΕΙΡΕΥΤΗΚΑ
TTITLE19=ΠΑΡΟΥΣΗΣ ΣΤΑΥΡΟΣ - ΤΟ ΤΕΛΕΥΤΑΙΟ ΤΡΑΜ
TTITLE20=ΠΑΡΟΥΣΗΣ ΣΤΑΥΡΟΣ - ΝΥΧΤΕΡΙΔΑ
TTITLE21=ΠΑΡΟΥΣΗΣ ΣΤΑΥΡΟΣ - ΤΡΑΜΠΑΡΙΦΑΣ
TTITLE22=ΚΟΡΩΝΗ ΓΕΩΡΓΙΑ - ΓΥΡΙΣΕ
TTITLE23=ΚΟΡΩΝΗ ΓΕΩΡΓΙΑ - ΕΤΣΙ ΕΙΝΑΙ Η ΖΩΗ
TTITLE24=ΚΟΡΩΝΗ ΓΕΩΡΓΙΑ - ΕΛΑ ΜΙΑ ΝΥΧΤΑ ΝΑ ΑΛΗΤΕΨΟΥΜΕ
TTITLE25=ΚΟΡΩΝΗ ΓΕΩΡΓΙΑ - ΜΑΝΟΥΛΑ ΜΟΥ
TTITLE26=ΖΑΧΑ ΝΙΝΗ - ΟΤΑΝ ΣΗΜΑΝΕΙ Η ΩΡΑ
EXTD=
EXTT0=
EXTT1=
EXTT2=
EXTT3=
EXTT4=
EXTT5=
EXTT6=
EXTT7=
EXTT8=
EXTT9=
EXTT10=
EXTT11=
EXTT12=
EXTT13=
EXTT14=
EXTT15=
EXTT16=
EXTT17=
EXTT18=
EXTT19=
EXTT20=
EXTT21=
EXTT22=
EXTT23=
EXTT24=
EXTT25=
EXTT26=
PLAYORDER=
